<svg viewBox="0 0 50 50" xmlns="http://www.w3.org/2000/svg" xmlns:xlink="http://www.w3.org/1999/xlink" id="FxSymbol0-058" overflow="hidden"><g><path d="M35 21.4 34.712 22.092 25.768 11.36 25 12 24.232 11.36 15.288 22.092 15 21.4 9.077 35.615 10.923 36.385 15 26.6 19.077 36.385 20.923 35.615 16.156 24.175 25 13.562 33.844 24.175 29.077 35.615 30.923 36.385 35 26.6 39.077 36.385 40.923 35.615 35 21.4Z" fill="#7FBA00"/><circle cx="40" cy="36" r="3" fill="#3999C6"/><circle cx="30" cy="36" r="3" fill="#3999C6"/><circle cx="25" cy="12" r="5" fill="#804998"/><circle cx="15" cy="24" r="4" fill="#0072C6"/><circle cx="35" cy="24" r="4" fill="#0072C6"/><circle cx="20" cy="36" r="3" fill="#3999C6"/><circle cx="10" cy="36" r="3" fill="#3999C6"/><path d="M9.5 45.4C9.25574 45.3803 9.01782 45.3123 8.8 45.2L2 41.2C0.799532 40.4795 0.0464651 39.1993-1.77636e-15 37.8L8.88178e-16 12.6C0.0214489 11.1936 0.781139 9.90208 2 9.2L8.8 5.2C9.49821 4.79888 10.3894 5.03971 10.7905 5.73792 11.1809 6.41748 10.9643 7.28411 10.3 7.7L3.5 11.7C3.22065 11.9219 3.04081 12.2456 3 12.6L3 37.8C3.04081 38.1544 3.22065 38.4781 3.5 38.7L10.3 42.7C10.99 43.1129 11.2147 44.007 10.8018 44.697 10.8012 44.698 10.8006 44.699 10.8 44.7 10.495 45.1181 10.017 45.3755 9.5 45.4ZM40.5 5C40.7443 5.01975 40.9822 5.08773 41.2 5.2L48 9.2C49.2005 9.92048 49.9535 11.2007 50 12.6L50 37.8C49.9785 39.2064 49.2189 40.4979 48 41.2L41.2 45.2C40.5018 45.6011 39.6106 45.3603 39.2095 44.6621 38.8191 43.9825 39.0357 43.1159 39.7 42.7L46.5 38.7C46.7794 38.4781 46.9592 38.1544 47 37.8L47 12.6C46.9592 12.2456 46.7794 11.9219 46.5 11.7L39.7 7.7C39.01 7.2871 38.7853 6.39301 39.1982 5.70298 39.1988 5.70199 39.1994 5.70099 39.2 5.7 39.5204 5.29996 39.9896 5.04731 40.5 5Z" fill="#7A7A7A"/></g></svg>