<svg width="50" height="50" viewBox="0 0 50 50" xmlns="http://www.w3.org/2000/svg" xmlns:xlink="http://www.w3.org/1999/xlink" id="Layer_1" overflow="hidden"><path d="M23.43 0.988 1.284 29.04C0.582 29.929 0.758 31.222 1.671 31.892L23.817 48.132C24.521 48.648 25.478 48.648 26.182 48.132L48.328 31.892C49.241 31.222 49.417 29.929 48.715 29.04L26.57 0.988C25.769-0.026 24.231-0.026 23.43 0.988Z" fill="#0072C6"/><path d="M27.198 47.388 47.639 32.398C46.649 31.128 45.169 30.258 43.471 30.123L37.807 22.915C37.865 22.585 37.901 22.247 37.901 21.9 37.901 18.646 35.255 16 32.001 16 28.747 16 26.101 18.646 26.101 21.9 26.101 22.247 26.137 22.584 26.195 22.915L20.531 30.123C17.496 30.364 15.1 32.905 15.1 36 15.1 39.254 17.746 41.9 21 41.9 21.395 41.9 21.781 41.859 22.154 41.785L26.143 44.686C26.26 45.688 26.643 46.603 27.198 47.388Z" fill="#FFFFFF" opacity="0.4"/><path d="M46.594 35.718 33.123 18.573 30.877 18.573 17.406 35.718 17.618 37.25 30.762 46.809 33.239 46.809 46.383 37.25 46.594 35.718Z" fill="#3999C6"/><circle cx="21" cy="36" r="4.9" fill="#3999C6"/><circle cx="43" cy="36" r="4.9" fill="#3999C6"/><circle cx="32" cy="44" r="4.9" fill="#3999C6"/><path d="M32 26.8C29.298 26.8 27.1 24.602 27.1 21.901 27.1 19.199 29.298 17.001 32 17.001 34.702 17.001 36.9 19.199 36.9 21.901 36.9 24.602 34.702 26.8 32 26.8Z" fill="#3999C6"/><path d="M22.428 35.802 32 32.618 41.572 35.802 32 42.764Z" fill="#FFFFFF" opacity="0.25"/><circle cx="21" cy="36" r="2.9" fill="#FFFFFF"/><circle cx="43" cy="36" r="2.9" fill="#FFFFFF"/><circle cx="32" cy="44" r="2.9" fill="#FFFFFF"/><path d="M32 24.899C30.4 24.899 29.1 23.598 29.1 22 29.1 20.4 30.401 19.1 32 19.1 33.599 19.1 34.9 20.401 34.9 22 34.9 23.599 33.6 24.899 32 24.899Z" fill="#FFFFFF"/><rect x="17.598" y="27.999" width="17.804" height="2" fill="#FFFFFF" opacity="0.6" transform="matrix(0.6181 -0.7861 0.7861 0.6181 -12.6756 31.9063)"/><rect x="36.499" y="20.099" width="2" height="17.804" fill="#FFFFFF" opacity="0.6" transform="matrix(0.7863 -0.6178 0.6178 0.7863 -9.9042 29.364)"/><path d="M43.588 36.809 42.412 35.191 33 42.037 33 22 31 22 31 42.037 21.588 35.191 20.412 36.809 31.412 44.809 32.588 44.809Z" fill="#FFFFFF"/><circle cx="21" cy="36" r="1.9" fill="#7FBA00"/><circle cx="43" cy="36" r="1.9" fill="#7FBA00"/><circle cx="32" cy="44" r="1.9" fill="#7FBA00"/><circle cx="32" cy="22" r="1.9" fill="#7FBA00"/></svg>