<svg viewBox="0 0 50 50" xmlns="http://www.w3.org/2000/svg" xmlns:xlink="http://www.w3.org/1999/xlink" id="FxSymbol0-0be" overflow="hidden"><g><path d="M0 2 11 2 11 13 0 13ZM13 2 25 2 25 13 13 13ZM27 2 38 2 38 13 27 13ZM0 15 11 15 11 26 0 26ZM13 15 25 15 25 26 13 26ZM27 15 38 15 38 26 27 26ZM0 28 11 28 11 40 0 40ZM13 28 25 28 25 40 13 40ZM27 28 38 28 38 40 27 40Z" fill="#0072C6"/><path d="M30.808 45.742C30.7515 45.7429 30.6959 45.7284 30.647 45.7L20.185 39.7C20.0852 39.6455 20.0234 39.5407 20.024 39.427L20.024 27.4C20.0244 27.2858 20.0858 27.1806 20.185 27.124 20.2844 27.0696 20.4046 27.0696 20.504 27.124L30.964 33.124C31.0608 33.1818 31.1201 33.2863 31.12 33.399L31.12 45.427C31.1208 45.5394 31.0613 45.6436 30.964 45.7 30.9162 45.7273 30.8621 45.7418 30.807 45.742M33.761 45.8C33.8175 45.8009 33.8731 45.7864 33.922 45.758L44.384 39.758C44.4838 39.7035 44.5456 39.5987 44.545 39.485L44.545 27.454C44.5446 27.3398 44.4832 27.2346 44.384 27.178 44.2846 27.1236 44.1644 27.1236 44.065 27.178L33.605 33.178C33.5082 33.2358 33.4489 33.3403 33.449 33.453L33.449 45.482C33.4482 45.5944 33.5078 45.6986 33.605 45.755 33.6528 45.7823 33.7069 45.7968 33.762 45.797" fill="#FFFFFF"/><path d="M32.316 49.322C32.2606 49.3215 32.2063 49.3059 32.159 49.277L21.665 43.263C21.566 43.2065 21.5052 43.101 21.506 42.987 21.5058 42.8747 21.5668 42.7713 21.665 42.717L32.092 36.741C32.19 36.6867 32.309 36.6867 32.407 36.741L42.907 42.759C43.0035 42.8149 43.0635 42.9175 43.065 43.029 43.0645 43.1421 43.0044 43.2466 42.907 43.304L32.475 49.277C32.427 49.306 32.3721 49.3216 32.316 49.322" fill="#FFFFFF"/><path d="M32.316 41C32.2606 40.9995 32.2063 40.9839 32.159 40.955L21.665 34.944C21.566 34.8875 21.5052 34.782 21.506 34.668 21.5058 34.5557 21.5668 34.4523 21.665 34.398L32.092 28.422C32.19 28.3677 32.309 28.3677 32.407 28.422L42.9 34.44C42.9965 34.4959 43.0565 34.5985 43.058 34.71 43.0575 34.8231 42.9974 34.9276 42.9 34.985L32.475 40.958C32.427 40.987 32.3721 41.0026 32.316 41.003" fill="#FFFFFF"/><path d="M30.808 48.461C30.7515 48.4619 30.6959 48.4474 30.647 48.419L20.185 42.419C20.0852 42.3645 20.0234 42.2597 20.024 42.146L20.024 30.118C20.0244 30.0038 20.0858 29.8986 20.185 29.842 20.2844 29.7876 20.4046 29.7876 20.504 29.842L30.964 35.842C31.0608 35.8998 31.1201 36.0042 31.12 36.117L31.12 48.146C31.1208 48.2584 31.0613 48.3626 30.964 48.419 30.9162 48.4463 30.8621 48.4608 30.807 48.461M33.768 48.461C33.7116 48.4609 33.6562 48.4465 33.607 48.419 33.5095 48.3627 33.4496 48.2586 33.45 48.146L33.45 36.191C33.4503 36.0781 33.5099 35.9737 33.607 35.916L44.065 29.922C44.1644 29.8664 44.2856 29.8664 44.385 29.922 44.4812 29.9789 44.5404 30.0822 44.541 30.194L44.541 42.149C44.5412 42.2612 44.4818 42.3652 44.385 42.422L33.923 48.422C33.876 48.4504 33.8219 48.465 33.767 48.464" fill="#59B4D9"/><path d="M33.768 48.461C33.7116 48.4609 33.6562 48.4465 33.607 48.419 33.5095 48.3627 33.4496 48.2586 33.45 48.146L33.45 36.191C33.4503 36.0781 33.5099 35.9737 33.607 35.916L44.065 29.922C44.1644 29.8664 44.2856 29.8664 44.385 29.922 44.4812 29.9789 44.5404 30.0822 44.541 30.194L44.541 42.149C44.5412 42.2612 44.4818 42.3652 44.385 42.422L33.923 48.422C33.876 48.4504 33.8219 48.465 33.767 48.464" fill="#FFFFFF" opacity="0.5"/><path d="M32.316 33.842C32.2606 33.8415 32.2063 33.8259 32.159 33.797L21.665 27.782C21.566 27.7255 21.5052 27.62 21.506 27.506 21.5058 27.3938 21.5668 27.2903 21.665 27.236L32.092 21.26C32.19 21.2057 32.309 21.2057 32.407 21.26L42.907 27.278C43.0035 27.3339 43.0635 27.4365 43.065 27.548 43.0645 27.6611 43.0044 27.7656 42.907 27.823L32.475 33.8C32.427 33.829 32.3721 33.8446 32.316 33.845" fill="#3999C6"/></g></svg>