<svg viewBox="0 0 50 50" xmlns="http://www.w3.org/2000/svg" xmlns:xlink="http://www.w3.org/1999/xlink" id="FxSymbol0-01a" overflow="hidden"><g><path d="M50 25.392C50 22.1 47.335 19.593 44.201 19.593L43.417 19.593C43.73 18.339 44.044 16.928 44.044 15.518 44.08 6.98362 37.1907 0.0359758 28.6563 3.81436e-06 28.6132-0.000177808 28.5701-0.000179196 28.527-3.50952e-07 21.787 0 15.988 4.389 13.95 10.658 12.853 10.345 11.756 10.031 10.502 10.031 4.702 10.031 0 14.734 0 20.69 0 26.646 4.702 31.348 10.502 31.348L44.671 31.348C47.7125 31.0242 50.0151 28.4506 50 25.392" fill="#59B4D9"/><path d="M15.987 31.348C14.576 29.937 13.636 28.213 13.166 26.176 11.912 20.377 15.36 14.734 21.16 13.48 22.414 13.167 23.511 13.167 24.608 13.323 25.078 7.994 28.37 3.135 33.229 0.784 31.7145 0.269541 30.1265 0.00475241 28.527-2.0504e-08 21.787 0 15.988 4.389 13.95 10.658 12.853 10.345 11.756 10.031 10.502 10.031 4.702 10.031 0 14.734 0 20.69 0 26.646 4.702 31.348 10.502 31.348L15.987 31.348Z" fill="#FFFFFF" opacity="0.2"/><path d="M36.526 31.972C34.946 33.408 32.863 34.27 30.565 34.27 28.267 34.27 26.184 33.408 24.604 31.972L23.741 50 30.564 43.105 37.388 50 36.526 31.972Z" fill="#BA141A"/><circle cx="30.564" cy="25.723" r="11.636" fill="#DD5900"/><circle cx="30.564" cy="25.723" r="8.763" fill="#FF8C00"/><path d="M22.305 33.983C17.78 29.458 17.78 22.06 22.305 17.535 26.83 13.01 34.228 13.01 38.753 17.535L22.305 33.983Z" fill="#FFFFFF" opacity="0.15"/></g></svg>