<svg viewBox="0 0 115 115" xmlns="http://www.w3.org/2000/svg" xmlns:xlink="http://www.w3.org/1999/xlink" id="FxSymbol0-0b6" overflow="hidden"><g><circle cx="49.44" cy="51.528" r="39.348" fill="#804998"/><path d="M60.701 38.554C65.371 40.934 68.447 45.816 68.447 51.074 67.604 51.074 66.274 51.362 65.502 51.074 64.671 50.765 65.033 50.914 64.864 49.665 64.7207 48.6371 64.422 47.637 63.978 46.699 62.165 42.813 58.062 40.335 53.771 40.623 49.634 40.901 45.964 43.757 44.586 47.654 43.836 49.775 44.202 52.026 43.535 54.162 42.8696 56.2961 41.5461 58.1649 39.754 59.501 44.423 61.881 47.5 66.763 47.5 72.021 46.665 72.021 45.311 72.304 44.554 72.021 43.839 71.754 44.095 71.97 43.951 70.961 43.803 69.919 43.597 68.933 43.177 67.958 41.536 64.145 37.699 61.547 33.535 61.547 29.486 61.547 25.751 63.995 24.039 67.646 23.5944 68.5838 23.2956 69.584 23.153 70.612 23.039 71.459 23.278 71.731 22.658 72.021 21.977 72.339 20.353 72.021 19.569 72.021 19.569 66.764 22.644 61.879 27.315 59.501 22.232 55.742 21.677 48.146 26.142 43.681 30.607 39.215 38.2 39.773 41.962 44.855 43.3423 42.1406 45.5481 39.9341 48.262 38.553 40.331 32.688 44.619 19.652 54.481 19.652 64.347 19.654 68.63 32.686 60.701 38.554 61.883 39.156 61.302 38.243 60.701 38.554ZM33.535 58.057C42.528 58.057 42.524 44.103 33.535 44.092 24.546 44.081 24.543 58.057 33.535 58.057ZM47.5 30.127C47.5 39.12 61.476 39.116 61.465 30.127 61.454 21.139 47.5 21.134 47.5 30.127ZM52.563 76.312 77.37 51.503 102.017 76.15 77.208 100.958Z" fill="#FFFFFF"/><path d="M79.343 64.884C78.988 65.062 78.81 65.062 78.277 65.239L78.277 83.543C78.81 83.721 79.521 84.076 80.054 84.609L88.228 78.034C88.051 77.679 88.051 76.968 88.051 76.435 88.051 75.902 88.228 75.013 88.406 74.48L79.343 64.884ZM65.837 74.48C66.192 75.013 66.37 75.902 66.37 76.612 66.37 77.145 66.192 77.856 66.015 78.389L74.19 84.964C74.545 84.609 75.256 84.253 75.789 83.898L75.789 65.239C75.434 65.061 75.256 65.061 75.078 64.884L65.837 74.48Z" fill="#59B4D9"/><path d="M77.21 44.092 48.777 77.857 77.211 100.959 105.644 77.857 77.21 44.092ZM92.671 81.233C91.605 81.233 90.716 80.878 89.828 80.167L81.653 86.92C81.831 87.275 81.831 87.631 81.831 88.164 81.831 90.652 79.876 92.784 77.211 92.784 74.546 92.784 72.59 90.829 72.59 88.164 72.59 87.809 72.59 87.453 72.768 87.098L64.06 80.345C63.349 80.878 62.46 81.056 61.572 81.056 59.084 81.056 56.952 79.101 56.952 76.436 56.952 73.948 58.907 71.816 61.572 71.816 62.283 71.816 62.994 71.994 63.705 72.349L72.768 62.397C72.59 61.864 72.413 61.153 72.413 60.442 72.413 57.954 74.368 55.822 77.034 55.822 79.7 55.822 81.654 57.777 81.654 60.442 81.654 61.153 81.476 62.041 81.121 62.574L90.006 72.526C90.717 72.171 91.605 71.993 92.316 71.993 94.804 71.993 96.937 73.948 96.937 76.613 97.114 79.278 94.981 81.233 92.671 81.233Z" fill="#59B4D9"/></g></svg>