<svg viewBox="0 0 113 80" xmlns="http://www.w3.org/2000/svg" xmlns:xlink="http://www.w3.org/1999/xlink" id="cloud-shell" overflow="hidden"><g fill="none"><path d="M0 65.9057C0 67.5343 1.148 69 3.116 69L78.884 69C80.524 69 82 67.86 82 65.9057L82 12 0 12 0 65.9057Z" fill="#A0A1A2"/><path d="M78.884 0 3.116 0C1.148 0 0 1.42105 0 3L0 12 82 12 82 3C82 1.42105 80.852 0 78.884 0" fill="#7A7A7A"/><rect x="5" y="17" width="72" height="47" fill="#0072C6"/><path d="M3.13761 0C1.65138 0 0 1.47887 0 3.12207L0 15.2817 0 20.7042 0 66.8779C0 68.5211 1.65138 70 3.13761 70L6.6055 70 72 0 3.13761 0Z" fill="#FFFFFF" opacity="0.2"/><path d="M23 28.375 10 23 10 25.591 20.054 29.476 20.054 29.527 10 33.411 10 36 23 30.625Z" fill="#FFFFFF"/><path d="M101.818 57.8296 101.48 57.8296C101.48 45.891 91.6525 36 79.7935 36 68.6114 36 59.4627 44.527 58.1071 55.4413 55.3968 51.6899 50.9919 49.6434 46.2481 49.6434 37.7763 49.6434 31 56.4646 31 64.6518 31 73.1788 37.7763 80 46.2481 80L101.818 80C107.917 80 113 75.2254 113 68.7439 113 62.6043 107.917 57.8296 101.818 57.8296" fill="#CAE3F3"/><rect x="26" y="33" width="12" height="2" fill="#FFFFFF"/></g></svg>