<svg width="50" height="50" viewBox="0 0 50 50" xmlns="http://www.w3.org/2000/svg" xmlns:xlink="http://www.w3.org/1999/xlink" id="Layer_1" overflow="hidden"><path d="M22 44C20.9 44 19.9 43.6 19.1 42.8L1.2 24.9C0.4 24.1 0 23.1 0 22 0 20.9 0.4 19.9 1.2 19.1L19.1 1.2C19.9 0.4 20.9 0 22 0 23.1 0 24.1 0.4 24.9 1.2L42.8 19.1C43.6 19.9 44 20.9 44 22 44 23.1 43.6 24.1 42.8 24.9L24.9 42.8C24.1 43.6 23.1 44 22 44" fill="#59B4D9"/><path d="M34 18.6C32.1 18.6 30.6 20.1 30.6 22 30.6 22.7 30.8 23.3 31.2 23.9L24.4 30.7C24.2 30.6 24 30.5 23.8 30.4L23.8 13C24.8 12.4 25.5 11.3 25.5 10 25.5 8.1 24 6.6 22.1 6.6 20.2 6.6 18.7 8.1 18.7 10 18.7 11.3 19.4 12.4 20.4 13L20.4 30.4C20.2 30.5 20 30.6 19.8 30.7L13 23.9C13.3 23.4 13.6 22.7 13.6 22 13.6 20.1 12.1 18.6 10.2 18.6 8.3 18.6 6.8 20.1 6.8 22 6.8 23.9 8.3 25.4 10.2 25.4 10.6 25.4 11 25.3 11.3 25.2L18.5 32.4C18.3 32.9 18.2 33.4 18.2 34 18.2 36.2 20 38 22.2 38 24.4 38 26.2 36.2 26.2 34 26.2 33.5 26.1 32.9 25.9 32.5L33.1 25.3C33.4 25.4 33.8 25.5 34.2 25.5 36.1 25.5 37.6 24 37.6 22.1 37.4 20.1 35.9 18.6 34 18.6Z" fill="#FFFFFF"/><rect x="27.3" y="7.2" width="2.2" height="18.2" fill="#FFFFFF" opacity="0.5" transform="matrix(0.707 -0.7072 0.7072 0.707 -3.2349 24.869)"/><rect x="14.5" y="7.3" width="2.2" height="18.2" fill="#FFFFFF" opacity="0.5" transform="matrix(-0.7071 -0.7071 0.7071 -0.7071 15.1 38.955)"/><path d="M24.3 34C24.3 35.3 23.2 36.4 21.9 36.4 20.6 36.4 19.5 35.3 19.5 34 19.5 32.7 20.6 31.6 21.9 31.6 23.3 31.6 24.3 32.7 24.3 34" fill="#B8D432"/><path d="M23.9 10C23.9 11.1 23 11.9 22 11.9 21 11.9 20.1 11 20.1 10 20.1 9 21 8.1 22 8.1 23 8.1 23.9 9 23.9 10" fill="#B8D432"/><path d="M11.9 22C11.9 23.1 11 23.9 10 23.9 8.9 23.9 8.1 23 8.1 22 8.1 20.9 9 20.1 10 20.1 11.1 20.1 11.9 20.9 11.9 22" fill="#B8D432"/><path d="M35.9 22C35.9 23.1 35 23.9 34 23.9 33 23.9 32.1 23 32.1 22 32.1 20.9 33 20.1 34 20.1 35 20.1 35.9 20.9 35.9 22" fill="#B8D432"/><path d="M24.9 1.2C24.1 0.4 23.1 0 22 0 20.9 0 19.9 0.4 19.1 1.2L1.2 19.1C0.4 19.9 0 20.9 0 22 0 23.1 0.4 24.1 1.2 24.9L11.3 35 30.5 6.8 24.9 1.2Z" fill="#FFFFFF" opacity="0.1"/><path d="M48.2 30.3C47.8 29.8 47.2 29.5 46.6 29.2 43.9 28.1 40 29.5 37.6 32.9 33.8 28.4 29.4 27.5 26.9 30.2 21.9 35.6 28.2 42.8 33.1 46.8 35 48.4 36.8 49.5 37.5 49.9L37.5 49.9C37.5 49.9 37.5 49.9 37.5 49.9 37.5 49.9 37.5 49.9 37.5 49.9L37.5 49.9C40.2 48.7 55.1 37.8 48.2 30.3" fill="#BA141A"/><path d="M37.6 32.9C33.8 28.4 29.4 27.5 26.9 30.2 21.9 35.6 28.2 42.8 33.1 46.8L46.7 29.1C43.9 28.1 40 29.5 37.6 32.9" fill="#FFFFFF" opacity="0.2"/><path d="M26.2 39.1 29 39.1 31.5 39 33.4 33.9C33.5 33.6 33.7 33 34.5 33 35.3 33 35.4 33.6 35.4 33.9L35.5 42.4 36.9 39.5C37 39.2 37.3 39.1 37.5 39.1L45.6 39.1C46 39.1 46.3 39.5 46.3 39.8 46.3 40.1 46 40.7 45.6 40.7L38.3 40.7 35.7 45.9C35.5 46.4 35.3 46.6 34.7 46.5L34.7 46.5C34.4 46.4 34.1 46 34.1 45.7L34 37.9 33.2 40C33.1 40.3 32.9 40.7 32.6 40.7L30.2 40.7 27.1 40.7 26.6 39.9 26.2 39.1Z" fill="#FFFFFF" opacity="0.5"/></svg>