<svg viewBox="0 0 331 344.9" xmlns="http://www.w3.org/2000/svg" xmlns:xlink="http://www.w3.org/1999/xlink" id="FxSymbol0-0a3" overflow="hidden"><g><circle cx="131.5" cy="69.5" r="25" fill="#0072C6"/><circle cx="188.6" cy="150" r="29.8" fill="#0072C6"/><circle cx="238.5" cy="238.6" r="23.3" fill="#0072C6"/><circle cx="146" cy="222.5" r="20.1" fill="#0072C6"/><circle cx="64.6" cy="161.3" r="20.1" fill="#0072C6"/><path d="M121.684 71.464 136.491 61.055 196.417 146.301 181.609 156.711Z" fill="#0072C6"/><path d="M178.94 151.228 194.649 142.236 247.607 234.754 231.898 243.746Z" fill="#0072C6"/><path d="M61.173 150.948 189.136 140.324 190.634 158.362 62.67 168.986Z" fill="#0072C6"/><path d="M135.476 218.99 181.356 142.846 196.86 152.188 150.978 228.331Z" fill="#0072C6"/><circle cx="37.2" cy="88.2" r="24" fill="#0072C6"/><circle cx="293.2" cy="88.2" r="24" fill="#0072C6"/><circle cx="171.6" cy="316.2" r="24" fill="#0072C6"/><path d="M63.5 67.1C89.2 40.2 125.4 23.5 165.5 23.5 205.4 23.5 241.5 40.1 267.2 66.8 271.7 61.3 278 57.2 285.1 55.4 283.5 53.6 281.8 51.8 280 50.1 265.1 35.2 247.8 23.6 228.5 15.4 208.5 6.9 187.3 2.7 165.4 2.7 143.5 2.7 122.3 7 102.3 15.4 83 23.6 65.7 35.2 50.8 50.1 49 51.9 47.3 53.7 45.6 55.5 52.9 57.4 59 61.5 63.5 67.1ZM318.3 110.8C313.5 116.1 307.1 119.8 299.8 121.3 304.2 135 306.6 149.5 306.6 164.7 306.6 230.1 262.1 285.1 201.7 301.1 204 305.7 205.3 310.8 205.3 316.3 205.3 318.2 205.1 320.1 204.8 321.9 212.9 319.9 220.8 317.2 228.5 314 247.8 305.8 265.1 294.2 280 279.3 294.9 264.4 306.5 247.1 314.7 227.8 323.2 207.8 327.4 186.6 327.4 164.7 327.4 146.1 324.4 128 318.3 110.8ZM140.3 303.5C74.4 291.6 24.4 234 24.4 164.6 24.4 149.5 26.8 135 31.2 121.3 23.9 120 17.5 116.3 12.6 111.2 6.6 128.3 3.6 146.2 3.6 164.6 3.6 186.5 7.9 207.7 16.3 227.7 24.5 247 36.1 264.3 51 279.2 65.9 294.1 83.2 305.7 102.5 313.9 114.2 318.9 126.4 322.4 138.9 324.4 138.2 321.8 137.9 319 137.9 316.2 137.8 311.7 138.7 307.4 140.3 303.5Z" fill="#0072C6"/></g></svg>