<svg viewBox="0 0 50 50" xmlns="http://www.w3.org/2000/svg" xmlns:xlink="http://www.w3.org/1999/xlink" id="Layer_1" overflow="hidden"><path d="M47.4 27.6C47.4 20.3 43.9 13.9 38.6 9.8 38.6 10 38.6 10.3 38.6 10.5 38.6 12.7 38 14.8 37.1 16.6 39.7 19.5 41.3 23.3 41.3 27.5 41.3 36.5 34 43.8 25 43.8 16 43.8 8.7 36.5 8.7 27.5 8.7 23 10.5 19 13.4 16 12.6 14.3 12.1 12.4 12.1 10.4 12.1 10 12.1 9.5 12.2 9.1 6.4 13.1 2.6 19.9 2.6 27.5 2.6 40 12.6 50 25 50 37.4 50 47.4 40 47.4 27.6Z" fill="#7FBA00"/><g><path d="M25.3 0C19.6 0 15 4.6 15 10.3 15 15 18.1 18.9 22.4 20.2L22.4 30.4 17.6 30.4 17.6 35.6 22.4 35.6 22.4 39.4 28.1 39.4 28.1 20.1C32.4 18.9 35.5 14.9 35.5 10.2 35.6 4.6 31 0 25.3 0ZM25.3 5.4C28 5.4 30.2 7.6 30.2 10.3 30.2 13 28 15.2 25.3 15.2 22.6 15.2 20.4 13 20.4 10.3 20.4 7.6 22.6 5.4 25.3 5.4Z" fill="#FCD116"/></g></svg>