<svg viewBox="0 0 76.031 100" xmlns="http://www.w3.org/2000/svg" xmlns:xlink="http://www.w3.org/1999/xlink" id="FxSymbol0-0c0" overflow="hidden"><g><path d="M28.284 81.85C26.3035 79.8706 26.3026 76.6604 28.2821 74.6799 28.2827 74.6793 28.2834 74.6786 28.284 74.678L39.412 63.551 39.412 53.6 55.845 37.166C60.0731 32.9368 60.0731 26.0812 55.845 21.852L37.166 3.172C32.9364-1.05687 26.0796-1.05687 21.85 3.172L3.172 21.852C-1.05684 26.0803-1.05725 32.9363 3.1711 37.1651 3.1714 37.1654 3.1717 37.1657 3.172 37.166L20.908 54.9 20.908 56.4 15.859 61.45 20.864 66.455 15.859 71.455 20.864 76.46 15.859 81.46 20.908 86.51 20.908 86.573 29.508 95.173 35.559 89.122ZM23.361 13.834C23.361 10.4391 26.1131 7.687 29.508 7.687 32.9029 7.687 35.655 10.4391 35.655 13.834 35.655 17.2289 32.9029 19.981 29.508 19.981 26.1133 19.9804 23.3616 17.2287 23.361 13.834Z" fill="#FCD116"/><path d="M12.364 25.92 47.846 25.92 47.846 31.02 12.364 31.02ZM12.364 34.217 47.846 34.217 47.846 39.317 12.364 39.317Z" fill="#FFFFFF" opacity="0.5"/><path d="M54.3 100C53.2359 100.003 52.2148 99.5801 51.465 98.825L33.735 81.1C32.1693 79.5353 32.1685 76.9976 33.7332 75.4318 33.7338 75.4312 33.7344 75.4306 33.735 75.43L51.461 57.7C53.0234 56.1343 55.5592 56.1316 57.1249 57.6939 57.1269 57.6959 57.129 57.698 57.131 57.7L74.855 75.429C76.4213 76.9916 76.4243 79.5281 74.8617 81.0943 74.8595 81.0966 74.8572 81.0988 74.855 81.101L57.131 98.825C56.3822 99.5791 55.3627 100.002 54.3 100" fill="#59B4D9"/><path d="M66.132 74.867C64.2581 74.863 62.7358 76.3789 62.7318 78.2528 62.7304 78.9198 62.9256 79.5723 63.293 80.129L56.56 86.861C56.3792 86.7375 56.1886 86.6292 55.99 86.537L55.99 69.36C57.6181 68.4244 58.1795 66.3462 57.2439 64.7181 56.3084 63.09 54.2301 62.5285 52.602 63.4641 50.9739 64.3997 50.4125 66.478 51.3481 68.1061 51.6478 68.6276 52.0805 69.0603 52.602 69.36L52.602 86.536C52.4107 86.6235 52.2268 86.7261 52.052 86.843L45.312 80.103C46.3787 78.4956 45.9405 76.3279 44.3331 75.2611 42.7258 74.1944 40.558 74.6326 39.4912 76.24 38.4245 77.8473 38.8628 80.0151 40.4701 81.0819 41.3852 81.6892 42.5327 81.8307 43.568 81.464L50.653 88.55C49.7961 90.5604 50.7311 92.8848 52.7415 93.7417 54.7518 94.5987 57.0763 93.6636 57.9332 91.6533 58.3516 90.6717 58.3559 89.5628 57.945 88.578L65.051 81.473C65.3978 81.5954 65.7623 81.6599 66.13 81.664 68.0078 81.664 69.53 80.1418 69.53 78.264 69.53 76.3862 68.0078 74.864 66.13 74.864Z" fill="#FFFFFF"/><path d="M53.484 67.092 55.034 65.54 67.748 78.25 66.196 79.801Z" fill="#FFFFFF" opacity="0.5"/><path d="M40.859 78.262 53.57 65.55 55.122 67.101 42.41 79.813Z" fill="#FFFFFF" opacity="0.5"/><path d="M56.612 90.1C56.6126 91.4012 55.5582 92.4564 54.257 92.457 52.9558 92.4576 51.9006 91.4032 51.9 90.102 51.8994 88.8008 52.9538 87.7456 54.255 87.745 54.2553 87.745 54.2557 87.745 54.256 87.745 55.5566 87.7444 56.6114 88.7984 56.612 90.099 56.612 90.0993 56.612 90.0997 56.612 90.1M56.185 66.43C56.185 67.4738 55.3388 68.32 54.295 68.32 53.2512 68.32 52.405 67.4738 52.405 66.43 52.405 65.3862 53.2512 64.54 54.295 64.54 55.3383 64.5395 56.1844 65.3847 56.185 66.428 56.185 66.4287 56.185 66.4293 56.185 66.43M44.352 78.265C44.352 79.3088 43.5058 80.155 42.462 80.155 41.4182 80.155 40.572 79.3088 40.572 78.265 40.572 77.2212 41.4182 76.375 42.462 76.375 43.5056 76.3755 44.3515 77.2214 44.352 78.265M68.022 78.265C68.0226 79.3094 67.1764 80.1564 66.132 80.157 65.0876 80.1575 64.2406 79.3114 64.24 78.267 64.2395 77.2226 65.0856 76.3755 66.13 76.375 66.1303 76.375 66.1307 76.375 66.131 76.375 67.175 76.375 68.0215 77.221 68.022 78.265" fill="#B8D432"/><path d="M57.131 57.7C55.5723 56.1345 53.0396 56.1291 51.4742 57.6878 51.4701 57.6919 51.466 57.6959 51.462 57.7L33.735 75.429C32.1693 76.9937 32.1685 79.5314 33.7332 81.0972 33.7338 81.0978 33.7344 81.0984 33.735 81.099L43.771 91.135 62.65 63.222Z" fill="#FFFFFF" opacity="0.1"/><path d="M34.788 68.137 34.788 55.217 30.924 57.12 30.924 72.001 34.788 68.137Z" fill="#FF8C00" opacity="0.4"/></g></svg>