<svg viewBox="0 0 50 50" xmlns="http://www.w3.org/2000/svg" xmlns:xlink="http://www.w3.org/1999/xlink" id="FxSymbol0-0bb" overflow="hidden"><g><path d="M49 25C49 38.254 38.254 49 24.999 49 11.744 49 1 38.254 1 25 1 11.746 11.744 1 24.999 1 38.254 1 49 11.746 49 25" fill="#804998"/><path d="M13.499 44.918C2.498 38.567-1.269 24.5 5.081 13.5 11.431 2.5 25.498-1.271 36.499 5.081" fill="#FFFFFF" opacity="0.15"/><path d="M38.061 29.061 35.94 26.94 26.684 36.196C26.624 36.169 26.562 36.148 26.5 36.124L26.5 22 23.5 22 23.5 36.123C23.438 36.147 23.376 36.168 23.316 36.195L16.806 29.685C17.036 29.168 17.169 28.6 17.169 27.998 17.164 25.6977 15.2993 23.8347 12.999 23.832 10.7 23.834 8.832 25.705 8.833 28.002 8.834 30.299 10.704 32.168 13 32.168L13.003 32.168C13.5829 32.1667 14.156 32.0434 14.685 31.806L21.195 38.316C20.9568 38.8466 20.8331 39.4214 20.832 40.003 20.8359 42.3026 22.6994 44.1657 24.999 44.169L25.002 44.169C27.3026 44.1646 29.1658 42.2996 29.168 39.999 29.168 39.4 29.034 38.833 28.805 38.317L38.061 29.061ZM13 27.832C13.046 27.832 13.088 27.851 13.119 27.881L12.882 28.118C12.8508 28.0862 12.8332 28.0435 12.833 27.999 12.832 27.92 12.922 27.832 13 27.832ZM25 40.168C24.9557 40.168 24.9133 40.1503 24.882 40.119L25 40 25.119 40.119C25.0872 40.1502 25.0445 40.1678 25 40.168Z" fill="#FFFFFF"/><path d="M27.168 39.999C27.1686 41.1964 26.1984 42.1674 25.001 42.168 23.8036 42.1686 22.8326 41.1984 22.832 40.001 22.8314 38.8036 23.8016 37.8326 24.999 37.832L25 37.832C26.197 37.832 27.167 38.802 27.168 39.999" fill="#7FBA00"/><path d="M36.999 32.168C34.703 32.168 32.834 30.3 32.832 28.002 32.83 25.704 34.699 23.834 36.998 23.832 39.2983 23.8348 41.163 25.6977 41.168 27.998 41.1669 30.299 39.303 32.1647 37.002 32.168L36.999 32.168ZM37 27.832C36.922 27.832 36.832 27.92 36.832 27.999 36.8314 28.0918 36.9062 28.1674 36.999 28.168 37.0918 28.1686 37.1674 28.0938 37.168 28.001 37.1685 27.9082 37.0938 27.8326 37.001 27.832 37.0007 27.832 37.0003 27.832 37 27.832Z" fill="#FFFFFF"/><path d="M39.168 27.999C39.1686 29.1964 38.1984 30.1674 37.001 30.168 35.8036 30.1686 34.8326 29.1984 34.832 28.001 34.8314 26.8036 35.8016 25.8326 36.999 25.832L37 25.832C38.197 25.832 39.167 26.802 39.168 27.999M15.168 27.999C15.1686 29.1964 14.1984 30.1674 13.001 30.168 11.8036 30.1686 10.8326 29.1984 10.832 28.001 10.8314 26.8036 11.8016 25.8326 12.999 25.832L13 25.832C14.197 25.832 15.167 26.802 15.168 27.999" fill="#7FBA00"/><path d="M29.973 14.9C29.973 17.607 27.78 19.8 25.073 19.8 22.366 19.8 20.173 17.607 20.173 14.9 20.173 12.193 22.366 10 25.073 10 27.78 10 29.973 12.193 29.973 14.9" fill="#804998"/><path d="M25.073 7C20.709 7 17.173 10.536 17.173 14.9 17.173 19.264 20.709 22.8 25.073 22.8 29.437 22.8 32.973 19.264 32.973 14.9 32.973 10.536 29.437 7 25.073 7ZM25.073 19.8C22.3674 19.8006 20.1736 17.6076 20.173 14.902 20.173 14.9013 20.173 14.9007 20.173 14.9 20.173 12.193 22.366 10 25.073 10 27.78 10 29.973 12.193 29.973 14.9 29.973 17.607 27.78 19.8 25.073 19.8Z" fill="#FFFFFF"/><path d="M16.021 27.1 22.783 20.338C21.8401 19.9363 21.0174 19.2972 20.395 18.483L13.9 24.979C14.9189 25.284 15.716 26.0811 16.021 27.1ZM34.018 27.1 27.256 20.338C28.1989 19.9363 29.0216 19.2972 29.644 18.483L36.14 24.979C35.1206 25.2836 34.3231 26.0808 34.018 27.1Z" fill="#FFFFFF" opacity="0.5"/></g></svg>