<svg width="50" height="50" viewBox="0 0 50 50" xmlns="http://www.w3.org/2000/svg" xmlns:xlink="http://www.w3.org/1999/xlink" id="Layer_1" overflow="hidden"><path d="M0 44.474C0 45.582 0.898 46.481 2.007 46.481L47.993 46.481C49.102 46.481 50 45.582 50 44.474L50 13.145 0 13.145 0 44.474Z" fill="#0072C6"/><path d="M47.993 3.847 2.007 3.847C0.898 3.847 0 4.745 0 5.854L0 16.481 50 16.481 50 5.854C50 4.745 49.101 3.847 47.993 3.847" fill="#A0A1A2"/><path d="M2.014 3.847C0.906 3.847 0.007 4.745 0.007 5.854L0.007 13.145 0.007 16.481 0.007 44.474C0.007 45.582 0.906 46.481 2.014 46.481L4.202 46.481 43.62 3.847 2.014 3.847Z" fill="#FFFFFF" opacity="0.2"/><rect x="12.857" y="8.626" width="33.671" height="3.942" fill="#FFFFFF"/><path d="M11.31 10.53C11.31 13.223 9.126 15.408 6.432 15.408 3.738 15.408 1.554 13.223 1.554 10.53 1.554 7.836 3.738 5.651 6.432 5.651 9.125 5.651 11.31 7.836 11.31 10.53" fill="#59B4D9"/><path d="M5.916 11.079 8.129 13.414 6.928 13.414 3.969 10.597 6.917 7.779 8.115 7.779 5.916 10.101 11.309 10.101 11.309 11.079Z" fill="#FFFFFF"/><path d="M17.286 26.473 14.642 35.289 13.179 35.289 11.362 28.978C11.293 28.737 11.247 28.464 11.224 28.16L11.19 28.16C11.173 28.367 11.113 28.634 11.009 28.961L9.037 35.289 7.625 35.289 4.956 26.473 6.437 26.473 8.262 33.102C8.32 33.303 8.36 33.567 8.383 33.894L8.452 33.894C8.469 33.642 8.521 33.372 8.607 33.085L10.639 26.473 11.931 26.473 13.756 33.119C13.813 33.332 13.857 33.596 13.885 33.911L13.954 33.911C13.965 33.687 14.014 33.423 14.1 33.119L15.891 26.473 17.286 26.473Z" fill="#FFFFFF"/><path d="M30.91 26.473 28.266 35.289 26.803 35.289 24.986 28.978C24.917 28.737 24.871 28.464 24.848 28.16L24.813 28.16C24.796 28.367 24.736 28.634 24.632 28.961L22.66 35.289 21.25 35.289 18.581 26.473 20.062 26.473 21.887 33.102C21.945 33.303 21.985 33.567 22.008 33.894L22.077 33.894C22.094 33.642 22.146 33.372 22.232 33.085L24.264 26.473 25.556 26.473 27.381 33.119C27.438 33.332 27.482 33.596 27.51 33.911L27.579 33.911C27.59 33.687 27.639 33.423 27.725 33.119L29.516 26.473 30.91 26.473Z" fill="#FFFFFF"/><path d="M44.535 26.473 41.891 35.289 40.428 35.289 38.611 28.978C38.542 28.737 38.496 28.464 38.473 28.16L38.438 28.16C38.421 28.367 38.361 28.634 38.257 28.961L36.285 35.289 34.873 35.289 32.204 26.473 33.685 26.473 35.51 33.102C35.568 33.303 35.608 33.567 35.631 33.894L35.7 33.894C35.717 33.642 35.769 33.372 35.855 33.085L37.887 26.473 39.179 26.473 41.004 33.119C41.061 33.332 41.105 33.596 41.133 33.911L41.202 33.911C41.213 33.687 41.262 33.423 41.348 33.119L43.139 26.473 44.535 26.473Z" fill="#FFFFFF"/></svg>